<svg width="227" height="70" fill="none" xmlns="http://www.w3.org/2000/svg"><path d="M6.051 29.844a7.3 7.3 0 00-2.09.308c-.69.19-1.364.425-2.024.704L.881 28.172a13.44 13.44 0 012.464-.792 12 12 0 012.772-.308c1.159 0 2.185.183 3.08.55a5.74 5.74 0 012.288 1.584c.63.69 1.107 1.54 1.43 2.552.338.997.506 2.134.506 3.41 0 1.613-.271 3.029-.814 4.246A6.153 6.153 0 0110.1 42.23c-1.115.66-2.545.99-4.29.99a13.83 13.83 0 01-2.442-.198 13.065 13.065 0 01-2.2-.616v-2.794c.836.264 1.606.47 2.31.616.719.147 1.43.22 2.134.22.675 0 1.269-.08 1.782-.242.528-.176.968-.425 1.32-.748.367-.337.653-.755.858-1.254.205-.513.323-1.1.352-1.76h-6.82v-2.728h6.798c-.015-.616-.117-1.159-.308-1.628a3.34 3.34 0 00-.792-1.21 3.351 3.351 0 00-1.21-.77 4.24 4.24 0 00-1.54-.264zM30.99 43h-3.322V30.064h-3.85l-.286 2.2c-.088.792-.19 1.599-.308 2.42a72.476 72.476 0 01-.33 2.31 42.943 42.943 0 01-.352 1.914c-.19.91-.447 1.687-.77 2.332-.308.645-.74 1.137-1.298 1.474-.542.337-1.254.506-2.134.506-.293 0-.572-.022-.836-.066a5.59 5.59 0 01-.748-.176V40.25c.191.059.374.11.55.154.191.044.396.066.616.066a.983.983 0 00.726-.286c.191-.19.36-.513.506-.968.147-.47.294-1.115.44-1.936.074-.352.162-.85.264-1.496.103-.66.22-1.43.352-2.31a130.177 130.177 0 00.858-6.182h9.922V43zm15.315 0h-9.042V27.292h9.042v2.728h-5.72v3.454h5.324v2.728h-5.324v4.048h5.72V43zm18.382 0h-3.784l-5.697-7.964V43h-3.322V27.292h3.322v7.612l5.632-7.612h3.541l-5.72 7.546L64.686 43zm10.338 0h-3.322V30.064h-4.268v-2.772h11.858v2.772h-4.268V43zM89.04 27.292c2.024 0 3.498.44 4.422 1.32.939.865 1.408 2.06 1.408 3.586 0 .69-.103 1.35-.308 1.98a4.367 4.367 0 01-1.034 1.672c-.47.484-1.093.865-1.87 1.144-.777.279-1.738.418-2.882.418h-1.43V43h-3.322V27.292h5.016zm-.176 2.728h-1.518v4.664h1.1c.63 0 1.173-.08 1.628-.242.455-.161.807-.418 1.056-.77.25-.352.374-.807.374-1.364 0-.777-.213-1.35-.638-1.716-.425-.381-1.093-.572-2.002-.572zm25.54 5.104c0 1.217-.154 2.325-.462 3.322-.293.983-.748 1.833-1.364 2.552-.601.719-1.378 1.269-2.332 1.65-.938.381-2.046.572-3.322.572-1.276 0-2.39-.19-3.344-.572-.938-.396-1.716-.946-2.332-1.65-.601-.719-1.056-1.577-1.364-2.574-.293-.997-.44-2.105-.44-3.322 0-1.628.264-3.043.792-4.246.543-1.203 1.364-2.134 2.464-2.794 1.115-.675 2.53-1.012 4.246-1.012 1.702 0 3.102.337 4.202 1.012 1.1.66 1.914 1.599 2.442 2.816.543 1.203.814 2.618.814 4.246zm-11.462 0c0 1.1.14 2.046.418 2.838.279.792.712 1.4 1.298 1.826.587.425 1.342.638 2.266.638.954 0 1.716-.213 2.288-.638.587-.425 1.012-1.034 1.276-1.826.279-.792.418-1.738.418-2.838 0-1.657-.308-2.955-.924-3.894-.616-.939-1.628-1.408-3.036-1.408-.938 0-1.701.213-2.288.638-.586.425-1.019 1.034-1.298 1.826-.278.792-.418 1.738-.418 2.838zm23.692-5.28c-.631 0-1.195.125-1.694.374-.484.25-.895.609-1.232 1.078-.337.455-.594 1.012-.77 1.672-.161.66-.242 1.4-.242 2.222 0 1.115.132 2.068.396 2.86.279.777.711 1.371 1.298 1.782.587.41 1.335.616 2.244.616.645 0 1.283-.073 1.914-.22a18.953 18.953 0 002.09-.616v2.794c-.689.279-1.371.484-2.046.616-.675.132-1.43.198-2.266.198-1.613 0-2.948-.33-4.004-.99-1.041-.675-1.811-1.613-2.31-2.816-.499-1.217-.748-2.633-.748-4.246 0-1.188.161-2.273.484-3.256.323-.997.792-1.855 1.408-2.574a6.466 6.466 0 012.31-1.672c.924-.396 1.98-.594 3.168-.594a9.1 9.1 0 012.332.308c.792.19 1.547.455 2.266.792l-1.078 2.706a16.86 16.86 0 00-1.782-.726 5.24 5.24 0 00-1.738-.308zm9.652-2.552h2.992v7.59c0 .367-.007.777-.022 1.232l-.044 1.342c-.015.425-.029.8-.044 1.122-.015.308-.029.52-.044.638h.066l7.26-11.924h3.982V43h-2.97v-7.546c0-.396.007-.829.022-1.298.015-.484.029-.946.044-1.386.029-.44.051-.821.066-1.144.029-.337.051-.557.066-.66h-.088L140.29 43h-4.004V27.292zM162.757 43h-3.322V30.064h-4.268v-2.772h11.858v2.772h-4.268V43zm9.001-15.708h2.992v7.59c0 .367-.008.777-.022 1.232l-.044 1.342c-.015.425-.03.8-.044 1.122-.015.308-.03.52-.044.638h.066l7.26-11.924h3.982V43h-2.97v-7.546c0-.396.007-.829.022-1.298.014-.484.029-.946.044-1.386.029-.44.051-.821.066-1.144.029-.337.051-.557.066-.66h-.088L175.762 43h-4.004V27.292z" fill="#E11C4B"/></svg>